<?xml version="1.0" encoding="iso-8859-1"?>
<!-- Generator: Adobe Illustrator 19.0.0, SVG Export Plug-In . SVG Version: 6.00 Build 0)  -->
<svg version="1.1" id="Capa_1" xmlns="http://www.w3.org/2000/svg" xmlns:xlink="http://www.w3.org/1999/xlink" x="0px" y="0px"
	 viewBox="0 0 512.004 512.004" style="enable-background:new 0 0 512.004 512.004;" xml:space="preserve">
<path style="fill:#3E4347;" d="M414.769,154.756c1.856-4.48,4.704-13.568,6.016-17.184c-3.616-1.76-6.016-5.584-6.016-9.968v-0.096
	c0.112-4.704,3.936-8.32,8.544-8.864V62.068h6.672v56.688c4.272,0.864,7.664,4.368,7.664,8.752v0.112
	c0,3.936-1.968,7.664-5.152,9.744c1.312,3.712,4.48,12.8,6.352,17.392H414.769z"/>
<circle style="fill:#FFD93B;" cx="256.001" cy="312.532" r="199.472"/>
<path style="fill:#F4C534;" d="M455.473,312.532c0,110.208-89.328,199.472-199.472,199.472c-62.704,0-118.688-28.928-155.28-74.24
	c34.224,27.68,77.792,44.192,125.232,44.192c110.144,0,199.472-89.264,199.472-199.472c0-47.44-16.512-91.008-44.192-125.232
	C426.481,193.86,455.473,249.828,455.473,312.532z"/>
<g>
	<ellipse style="fill:#FFFFFF;" cx="178.129" cy="285.732" rx="61.84" ry="61.904"/>
	<ellipse style="fill:#FFFFFF;" cx="333.921" cy="285.732" rx="61.856" ry="61.904"/>
</g>
<g>
	<path style="fill:#3E4347;" d="M434.625,276.34h-30.784c-4.608-34.544-34.208-61.28-69.936-61.28
		c-26.448,0-49.52,14.656-61.584,36.272c-3.28,5.872-9.472,9.296-16.192,9.248c-0.032,0-0.08,0-0.112,0c-0.064,0-0.112,0-0.176,0
		c-6.688,0.048-12.864-3.392-16.128-9.232c-12.064-21.632-35.136-36.304-61.584-36.304c-35.728,0-65.264,26.752-69.872,61.28h-30.88
		v18.704h31.104c4.336,32.272,30.56,58.224,63.584,61.024c41.792,3.536,77.488-29.792,76.592-71.792
		c0.72-3.52,3.664-6.208,7.376-6.208c3.792,0,7.312,2.736,7.312,7.696c0,40.736,34.72,73.536,76.128,70.368
		c33.136-2.544,59.856-28.464,64.176-61.072h30.992V276.34H434.625z M178.129,338.868c-29.296,0-53.12-23.84-53.12-53.104
		c0-29.344,23.824-53.216,53.12-53.216c29.28,0,53.104,23.872,53.104,53.216C231.249,315.028,207.425,338.868,178.129,338.868z
		 M333.921,338.868c-29.296,0-53.12-23.84-53.12-53.104c0-29.344,23.824-53.216,53.12-53.216c29.28,0,53.104,23.872,53.104,53.216
		C387.025,315.028,363.201,338.868,333.921,338.868z"/>
	<path style="fill:#3E4347;" d="M341.985,295.7c0,12.992-10.464,23.712-23.632,23.712c-13.008,0-23.632-10.704-23.632-23.712
		c0-13.088,10.624-23.792,23.632-23.792C331.521,271.908,341.985,282.612,341.985,295.7z"/>
</g>
<ellipse transform="matrix(-0.7071 -0.7071 0.7071 -0.7071 354.2183 721.6145)" style="fill:#FFFFFF;" cx="326.56" cy="287.446" rx="7.792" ry="5.392"/>
<path style="fill:#3E4347;" d="M217.313,295.7c0,12.992-10.464,23.712-23.632,23.712c-13.008,0-23.632-10.704-23.632-23.712
	c0-13.088,10.624-23.792,23.632-23.792C206.849,271.908,217.313,282.612,217.313,295.7z"/>
<ellipse transform="matrix(-0.7071 -0.7071 0.7071 -0.7071 141.3459 633.4084)" style="fill:#FFFFFF;" cx="201.856" cy="287.431" rx="7.792" ry="5.392"/>
<g>
	<path style="fill:#3E4347;" d="M190.033,390.5c6.336,23.312,34.08,40.224,65.968,40.224s59.632-16.912,65.968-40.224
		c1.136-4.16,5.392-6.544,9.568-5.472c4.144,1.136,6.608,5.424,5.472,9.568c-8.144,29.968-42.208,51.712-81.008,51.712
		c-38.784,0-72.864-21.76-80.992-51.712c-1.136-4.16,1.328-8.432,5.472-9.568C184.641,383.924,188.913,386.356,190.033,390.5z"/>
	<path style="fill:#3E4347;" d="M360.017,66.98v88.656c0,3.344-2.448,6.256-5.792,6.864c-67.744,12.352-133.2,11.904-196.528,0.144
		c-3.36-0.752-5.792-3.664-5.792-7.024V66.98c0-3.808,3.2-6.864,7.024-6.864h194.24C356.977,60.116,360.017,63.172,360.017,66.98z"
		/>
</g>
<path style="fill:#5A5F63;" d="M457.937,67.716L258.001,120.02c-1.28,0.368-2.736,0.368-4.016,0L54.065,67.716
	c-7.84-2-7.84-13.12,0-15.136L254.001,0.276c1.28-0.368,2.736-0.368,4.016,0L457.953,52.58
	C465.777,54.58,465.777,65.716,457.937,67.716z"/>
<g>
</g>
<g>
</g>
<g>
</g>
<g>
</g>
<g>
</g>
<g>
</g>
<g>
</g>
<g>
</g>
<g>
</g>
<g>
</g>
<g>
</g>
<g>
</g>
<g>
</g>
<g>
</g>
<g>
</g>
</svg>
