<?xml version="1.0" encoding="UTF-8" standalone="no"?>
<!-- Created with Inkscape (http://www.inkscape.org/) -->
<svg xmlns:dc="http://purl.org/dc/elements/1.1/" xmlns:cc="http://creativecommons.org/ns#" xmlns:rdf="http://www.w3.org/1999/02/22-rdf-syntax-ns#" xmlns:svg="http://www.w3.org/2000/svg" xmlns="http://www.w3.org/2000/svg" xmlns:sodipodi="http://sodipodi.sourceforge.net/DTD/sodipodi-0.dtd" xmlns:inkscape="http://www.inkscape.org/namespaces/inkscape" width="100%" height="100%" preserveAspectRatio="xMinYMin meet" viewBox="0 0 313.34201 116.55123" id="svg2" version="1.1" inkscape:version="0.48.5 r10040" sodipodi:docname="mumlogo.svg">
  <defs id="defs4"/>
  <sodipodi:namedview id="base" pagecolor="#ffffff" bordercolor="#666666" borderopacity="1.0" inkscape:pageopacity="0.0" inkscape:pageshadow="2" inkscape:zoom="4" inkscape:cx="102.69677" inkscape:cy="54.858139" inkscape:document-units="px" inkscape:current-layer="layer1" showgrid="true" fit-margin-top="0" fit-margin-left="0" fit-margin-right="0" fit-margin-bottom="0" inkscape:window-width="2560" inkscape:window-height="1378" inkscape:window-x="2552" inkscape:window-y="-8" inkscape:window-maximized="1">
    <inkscape:grid type="xygrid" id="grid2986"/>
  </sodipodi:namedview>
  <metadata id="metadata7">
    <rdf:RDF>
      <cc:Work rdf:about="">
        <dc:format>image/svg+xml</dc:format>
        <dc:type rdf:resource="http://purl.org/dc/dcmitype/StillImage"/>
        <dc:title/>
      </cc:Work>
    </rdf:RDF>
  </metadata>
  <g inkscape:label="Ebene 1" inkscape:groupmode="layer" id="layer1" transform="translate(-208.66883,-480.93342)">
    <path id="path3036" style="fill:#183b65;fill-opacity:1;fill-rule:nonzero;stroke:none" d="m 313.74936,570.81962 0,-10.11994 2.01688,0 2.39384,7.16523 c 0.22146,0.66685 0.38408,1.16635 0.48319,1.49868 0.11523,-0.36773 0.29441,-0.90951 0.53941,-1.62356 l 2.42217,-7.04035 1.80253,0 0,10.11994 -1.29122,0 0,-8.47043 -2.94054,8.47043 -1.20864,0 -2.92639,-8.61419 0,8.61419 z m 16.67698,-2.361 1.2841,0.1579 c -0.20272,0.75161 -0.57732,1.3337 -1.12384,1.74824 -0.54908,0.41239 -1.24875,0.61966 -2.09949,0.61966 -1.07213,0 -1.92248,-0.32979 -2.54938,-0.98956 -0.6291,-0.65976 -0.94237,-1.58561 -0.94237,-2.77792 0,-1.2346 0.31816,-2.19131 0.95198,-2.87211 0.63601,-0.68082 1.4584,-1.02261 2.47152,-1.02261 0.98014,0 1.78129,0.3345 2.40095,1.00137 0.62202,0.66682 0.9331,1.60704 0.9331,2.81567 0,0.0753 -0.002,0.18622 -0.007,0.33216 l -5.46615,0 c 0.0446,0.80586 0.27312,1.42316 0.68318,1.8497 0.41001,0.42871 0.91893,0.64306 1.53154,0.64306 0.45484,0 0.84361,-0.12014 1.16632,-0.36047 0.32269,-0.23776 0.57718,-0.61946 0.76578,-1.14509 z m -4.07861,-2.00981 4.09273,0 c -0.0543,-0.61492 -0.21197,-1.07902 -0.46883,-1.38521 -0.39602,-0.47845 -0.90951,-0.71877 -1.53879,-0.71877 -0.57007,0 -1.05071,0.19073 -1.43948,0.57244 -0.38877,0.38171 -0.60316,0.89302 -0.64563,1.53154 z m 11.70775,1.68473 1.22063,0.16026 c -0.13195,0.8411 -0.47357,1.50087 -1.02497,1.97676 -0.54903,0.47591 -1.22514,0.71386 -2.02629,0.71386 -1.00137,0 -1.80963,-0.32743 -2.41748,-0.9823 -0.61023,-0.65522 -0.91657,-1.59523 -0.91657,-2.82039 0,-0.7917 0.13196,-1.48436 0.39347,-2.07823 0.26391,-0.59368 0.66212,-1.03909 1.1994,-1.33586 0.5349,-0.29696 1.11915,-0.44542 1.74824,-0.44542 0.79646,0 1.44897,0.20254 1.95316,0.60549 0.50657,0.40295 0.83182,0.97307 0.97558,1.71539 l -1.20878,0.18605 c -0.11548,-0.4924 -0.31801,-0.8623 -0.61023,-1.11205 -0.29204,-0.24741 -0.64564,-0.37227 -1.0602,-0.37227 -0.62672,0 -1.13564,0.22377 -1.52679,0.67392 -0.39114,0.44761 -0.58681,1.15671 -0.58681,2.12759 0,0.98484 0.18861,1.70106 0.56795,2.14883 0.37696,0.44523 0.8694,0.66901 1.47726,0.66901 0.4877,0 0.89296,-0.15082 1.22059,-0.44994 0.32744,-0.29912 0.53472,-0.7587 0.62184,-1.3807 z m 2.28566,2.68608 0,-10.11994 1.24168,0 0,3.63098 c 0.57956,-0.67138 1.31227,-1.00844 2.19604,-1.00844 0.54178,0 1.01312,0.10836 1.41355,0.32288 0.40059,0.21184 0.68806,0.5088 0.86012,0.88596 0.17192,0.37697 0.25904,0.92586 0.25904,1.64207 l 0,4.64649 -1.24405,0 0,-4.64649 c 0,-0.61965 -0.13429,-1.07199 -0.40275,-1.35478 -0.26862,-0.28279 -0.65033,-0.4265 -1.14277,-0.4265 -0.36773,0 -0.71385,0.0967 -1.0391,0.28766 -0.32525,0.19079 -0.55614,0.44979 -0.6926,0.77741 -0.13922,0.32525 -0.20748,0.77755 -0.20748,1.35237 l 0,4.01033 z m 12.64559,-0.90481 c -0.46195,0.39115 -0.9048,0.66685 -1.32898,0.82948 -0.42636,0.16009 -0.88339,0.24013 -1.37128,0.24013 -0.80566,0 -1.423,-0.19548 -1.8566,-0.58898 -0.43106,-0.39332 -0.64796,-0.89772 -0.64796,-1.50793 0,-0.36047 0.0801,-0.6879 0.24506,-0.98485 0.16263,-0.29693 0.37697,-0.53489 0.6409,-0.71403 0.26624,-0.17896 0.5632,-0.31564 0.89533,-0.40748 0.24268,-0.0635 0.61022,-0.12724 1.10266,-0.18622 1.00369,-0.12015 1.74369,-0.26136 2.21721,-0.42872 0.006,-0.16969 0.007,-0.27805 0.007,-0.32289 0,-0.50657 -0.11797,-0.86467 -0.35341,-1.06981 -0.31583,-0.2826 -0.78935,-0.42162 -1.41394,-0.42162 -0.58425,0 -1.01548,0.10129 -1.29572,0.30638 -0.27809,0.20492 -0.483,0.56777 -0.61729,1.0885 l -1.21357,-0.16738 c 0.11091,-0.51817 0.29221,-0.93998 0.54433,-1.25817 0.25213,-0.32033 0.61966,-0.56794 1.09793,-0.73982 0.47844,-0.17187 1.03203,-0.25918 1.6635,-0.25918 0.62671,0 1.13333,0.0753 1.52446,0.22146 0.39115,0.14845 0.67863,0.33231 0.86467,0.55608 0.18387,0.22383 0.31109,0.50425 0.38641,0.84585 0.0402,0.21198 0.0614,0.59369 0.0614,1.14509 l 0,1.65641 c 0,1.15691 0.0259,1.88729 0.08,2.19131 0.0519,0.3062 0.15794,0.60077 0.31327,0.8812 l -1.2981,0 c -0.12722,-0.25684 -0.21202,-0.55849 -0.24738,-0.90481 z m -0.10366,-2.77555 c -0.45228,0.18622 -1.12877,0.34176 -2.02866,0.47119 -0.5113,0.0731 -0.87428,0.15554 -1.08392,0.24738 -0.21199,0.0918 -0.37698,0.22616 -0.49008,0.40531 -0.11542,0.1766 -0.17444,0.37226 -0.17444,0.58897 0,0.33233 0.12728,0.60786 0.37716,0.82947 0.24975,0.21908 0.61716,0.3298 1.1003,0.3298 0.47826,0 0.90481,-0.10364 1.2769,-0.31328 0.37243,-0.20982 0.64815,-0.49732 0.82238,-0.86015 0.13429,-0.28023 0.20036,-0.69497 0.20036,-1.24167 z m 3.18305,3.68036 0,-7.33004 1.11679,0 0,1.04148 c 0.53983,-0.80589 1.31719,-1.20884 2.33268,-1.20884 0.44281,0 0.84799,0.0801 1.21831,0.23814 0.37219,0.16007 0.64772,0.36735 0.83174,0.62653 0.18632,0.25686 0.31317,0.56325 0.38844,0.91661 0.0451,0.23089 0.0683,0.63384 0.0683,1.20884 l 0,4.50728 -1.24387,0 0,-4.4603 c 0,-0.5042 -0.0469,-0.88354 -0.14358,-1.13566 -0.0967,-0.24975 -0.26857,-0.45015 -0.51344,-0.59842 -0.24775,-0.15082 -0.53509,-0.22615 -0.86727,-0.22615 -0.53016,0 -0.98501,0.16951 -1.37141,0.50406 -0.38408,0.33701 -0.57501,0.97321 -0.57501,1.91339 l 0,4.00308 z m 7.86737,-8.6895 0,-1.43044 1.24386,0 0,1.43044 z m 0,8.6895 0,-7.33004 1.24386,0 0,7.33004 z m 3.14103,0 0,-10.11994 1.24387,0 0,5.77036 2.94031,-2.98046 1.60722,0 -2.80183,2.71909 3.08666,4.61095 -1.5338,0 -2.42223,-3.74861 -0.87633,0.84346 0,2.90515 z m 15.79579,0 0,-1.07686 c -0.57245,0.82947 -1.34795,1.24166 -2.3279,1.24166 -0.4312,0 -0.83637,-0.0824 -1.21134,-0.24721 -0.3745,-0.16498 -0.65284,-0.37462 -0.83404,-0.62455 -0.18354,-0.25211 -0.31085,-0.55831 -0.38381,-0.92114 -0.0497,-0.2452 -0.0757,-0.63144 -0.0757,-1.16162 l 0,-4.54032 1.24202,0 0,4.06442 c 0,0.65013 0.026,1.08611 0.0753,1.31227 0.0799,0.32761 0.24488,0.58208 0.49719,0.77049 0.25462,0.18622 0.5678,0.27805 0.93998,0.27805 0.37219,0 0.72114,-0.0942 1.04871,-0.28513 0.32759,-0.19076 0.55805,-0.4525 0.6928,-0.77993 0.13661,-0.32979 0.20491,-0.80806 0.20491,-1.43243 l 0,-3.92774 1.24155,0 0,7.33004 z m 3.05833,0 0,-7.33004 1.11655,0 0,1.04148 c 0.53947,-0.80589 1.31729,-1.20884 2.33255,-1.20884 0.44328,0 0.84845,0.0801 1.21831,0.23814 0.37219,0.16007 0.64773,0.36735 0.83173,0.62653 0.18632,0.25686 0.31317,0.56325 0.38844,0.91661 0.0451,0.23089 0.0688,0.63384 0.0688,1.20884 l 0,4.50728 -1.24434,0 0,-4.4603 c 0,-0.5042 -0.0469,-0.88354 -0.14357,-1.13566 -0.0966,-0.24975 -0.26857,-0.45015 -0.51344,-0.59842 -0.24767,-0.15082 -0.53529,-0.22615 -0.86704,-0.22615 -0.53017,0 -0.98506,0.16951 -1.37165,0.50406 -0.3838,0.33701 -0.57477,0.97321 -0.57477,1.91339 l 0,4.00308 z m 12.61712,0 0,-0.92604 c -0.46418,0.72802 -1.14722,1.09084 -2.05004,1.09084 -0.58406,0 -1.12167,-0.16009 -1.61141,-0.48298 -0.48974,-0.32036 -0.86936,-0.77048 -1.14025,-1.35003 -0.26856,-0.57717 -0.40332,-1.2393 -0.40332,-1.99091 0,-0.73055 0.12267,-1.39505 0.36568,-1.99092 0.24487,-0.59625 0.61009,-1.05328 1.09797,-1.36909 0.48742,-0.31801 1.03432,-0.47827 1.63743,-0.47827 0.44048,0 0.83405,0.0942 1.17789,0.28041 0.34663,0.18624 0.62681,0.42874 0.84381,0.72803 l 0,-3.63098 1.23457,0 0,10.11994 z m -3.92769,-3.65912 c 0,0.94 0.19793,1.64224 0.59382,2.10635 0.39542,0.46411 0.86239,0.69733 1.40185,0.69733 0.54178,0 1.00365,-0.22378 1.38327,-0.66665 0.37915,-0.44288 0.57013,-1.12151 0.57013,-2.0334 0,-1.00374 -0.1933,-1.73881 -0.57989,-2.20783 -0.38613,-0.47115 -0.8624,-0.70441 -1.4302,-0.70441 -0.55153,0 -1.01293,0.22614 -1.38279,0.67611 -0.36987,0.45015 -0.55619,1.16163 -0.55619,2.1325 z m 11.07866,3.65912 0,-10.11994 2.01705,0 2.39388,7.16523 c 0.22116,0.66685 0.3838,1.16635 0.48323,1.49868 0.11524,-0.36773 0.29412,-0.90951 0.53899,-1.62356 l 2.42223,-7.04035 1.80285,0 0,10.11994 -1.29128,0 0,-8.47043 -2.9403,8.47043 -1.20903,0 -2.92636,-8.61419 0,8.61419 z m 16.67722,-2.361 1.28383,0.1579 c -0.20258,0.75161 -0.57709,1.3337 -1.12399,1.74824 -0.54874,0.41239 -1.24851,0.61966 -2.09928,0.61966 -1.07195,0 -1.92226,-0.32979 -2.54953,-0.98956 -0.62868,-0.65976 -0.94232,-1.58561 -0.94232,-2.77792 0,-0.47061 0.0462,-0.90083 0.13858,-1.29079 0.14991,-0.63308 0.42128,-1.16003 0.81349,-1.58132 0.63611,-0.68082 1.45854,-1.02261 2.47147,-1.02261 0.98042,0 1.78147,0.3345 2.40086,1.00137 0.50313,0.53925 0.80298,1.25728 0.89929,2.15147 0.0228,0.21156 0.0342,0.43297 0.0342,0.6642 0,0.0753 -0.002,0.18622 -0.007,0.33216 l -5.46615,0 c 0.0446,0.80586 0.27322,1.42316 0.6835,1.8497 0.40982,0.42871 0.91862,0.64306 1.53103,0.64306 0.45489,0 0.84381,-0.12014 1.16627,-0.36047 0.32293,-0.23776 0.57756,-0.61946 0.7662,-1.14509 z m -4.07869,-2.00981 4.09263,0 c -0.0544,-0.61492 -0.21187,-1.07902 -0.46882,-1.38521 -0.39589,-0.47845 -0.90933,-0.71877 -1.53846,-0.71877 -0.57059,0 -1.05103,0.19073 -1.43995,0.57244 -0.38845,0.38171 -0.60312,0.89302 -0.6454,1.53154 z m 11.94104,2.00981 1.2843,0.1579 c -0.20305,0.75161 -0.57756,1.3337 -1.12398,1.74824 -0.54923,0.41239 -1.24898,0.61966 -2.09929,0.61966 -1.07242,0 -1.92273,-0.32979 -2.54955,-0.98956 -0.62913,-0.65976 -0.9423,-1.58561 -0.9423,-2.77792 0,-1.2346 0.31782,-2.19131 0.9516,-2.87211 0.63611,-0.68082 1.45854,-1.02261 2.47194,-1.02261 0.97995,0 1.781,0.3345 2.40085,1.00137 0.6217,0.66682 0.93301,1.60704 0.93301,2.81567 0,0.0753 -0.002,0.18622 -0.007,0.33216 l -5.46614,0 c 0.0446,0.80586 0.27322,1.42316 0.6835,1.8497 0.40982,0.42871 0.91862,0.64306 1.53149,0.64306 0.45442,0 0.84335,-0.12014 1.16628,-0.36047 0.32245,-0.23776 0.57708,-0.61946 0.76574,-1.14509 z m -4.0787,-2.00981 4.09265,0 c -0.0539,-0.61492 -0.21189,-1.07902 -0.46883,-1.38521 -0.39588,-0.47845 -0.90933,-0.71877 -1.53846,-0.71877 -0.57013,0 -1.05104,0.19073 -1.43948,0.57244 -0.38892,0.38171 -0.60312,0.89302 -0.64588,1.53154 z m 6.91075,4.37081 0,-7.33004 1.11702,0 0,1.10969 c 0.28529,-0.51837 0.54876,-0.8623 0.79177,-1.0273 0.24022,-0.16481 0.50646,-0.24975 0.79594,-0.24975 0.41958,0 0.8438,0.13433 1.27732,0.40058 l -0.42887,1.15456 c -0.30156,-0.18149 -0.60543,-0.27098 -0.90932,-0.27098 -0.27368,0 -0.51622,0.0824 -0.73321,0.24501 -0.21653,0.16499 -0.36987,0.39114 -0.4614,0.68085 -0.1394,0.44067 -0.20724,0.92368 -0.20724,1.44911 l 0,3.83827 z m 9.73814,-2.361 1.2843,0.1579 c -0.20305,0.75161 -0.57756,1.3337 -1.12398,1.74824 -0.54923,0.41239 -1.24899,0.61966 -2.0993,0.61966 -1.07241,0 -1.92272,-0.32979 -2.54954,-0.98956 -0.62914,-0.65976 -0.94231,-1.58561 -0.94231,-2.77792 0,-1.2346 0.31782,-2.19131 0.9516,-2.87211 0.63611,-0.68082 1.45854,-1.02261 2.47148,-1.02261 0.98041,0 1.78147,0.3345 2.40132,1.00137 0.62169,0.66682 0.93301,1.60704 0.93301,2.81567 0,0.0753 -0.002,0.18622 -0.007,0.33216 l -5.46662,0 c 0.0451,0.80586 0.27322,1.42316 0.68351,1.8497 0.40982,0.42871 0.91861,0.64306 1.53148,0.64306 0.45444,0 0.84335,-0.12014 1.16628,-0.36047 0.32293,-0.23776 0.57709,-0.61946 0.76574,-1.14509 z m -4.0787,-2.00981 4.0931,0 c -0.0544,-0.61492 -0.21234,-1.07902 -0.46929,-1.38521 -0.39588,-0.47845 -0.90932,-0.71877 -1.53846,-0.71877 -0.57012,0 -1.05058,0.19073 -1.43995,0.57244 -0.38845,0.38171 -0.60265,0.89302 -0.6454,1.53154 z m 6.42797,2.18186 1.22761,-0.19329 c 0.0678,0.4926 0.26114,0.8694 0.5771,1.1335 0.31317,0.26154 0.75412,0.3933 1.32193,0.3933 0.57012,0 0.99389,-0.11761 1.2699,-0.34866 0.27553,-0.23323 0.41446,-0.50639 0.41446,-0.81767 0,-0.28261 -0.1222,-0.50169 -0.36754,-0.66431 -0.1696,-0.11072 -0.59336,-0.24975 -1.26989,-0.41927 -0.90932,-0.23106 -1.5431,-0.4289 -1.89438,-0.59861 -0.35081,-0.16716 -0.61984,-0.40058 -0.80106,-0.69734 -0.18167,-0.29696 -0.27322,-0.62453 -0.27322,-0.98268 0,-0.3274 0.0753,-0.62891 0.22583,-0.90695 0.14868,-0.28042 0.3536,-0.51129 0.61055,-0.69516 0.19329,-0.1414 0.45722,-0.26393 0.78897,-0.36285 0.33502,-0.0991 0.6928,-0.14846 1.07474,-0.14846 0.57477,0 1.07892,0.0849 1.51476,0.24975 0.43584,0.165 0.75646,0.38877 0.96369,0.67156 0.2077,0.28516 0.34895,0.66194 0.42655,1.1357 l -1.21321,0.16732 c -0.0567,-0.37697 -0.21699,-0.67175 -0.48091,-0.88371 -0.26345,-0.21202 -0.63843,-0.31801 -1.1212,-0.31801 -0.57013,0 -0.97809,0.0942 -1.22064,0.28278 -0.24487,0.18842 -0.36753,0.41 -0.36753,0.66213 0,0.16244 0.0521,0.3062 0.15333,0.4358 0.10129,0.13428 0.25881,0.24263 0.4758,0.33232 0.12453,0.0447 0.4902,0.15081 1.09797,0.31562 0.87865,0.23561 1.49152,0.42655 1.83769,0.57738 0.34895,0.14847 0.62217,0.36736 0.82011,0.65251 0.19794,0.28514 0.29691,0.63852 0.29691,1.0627 0,0.41473 -0.12266,0.80352 -0.36335,1.17089 -0.24209,0.36535 -0.59104,0.64815 -1.04593,0.84834 -0.4549,0.20021 -0.97066,0.29912 -1.54543,0.29912 -0.9544,0 -1.68018,-0.19784 -2.17968,-0.5937 -0.4995,-0.39586 -0.81732,-0.98248 -0.95393,-1.76005 z m 10.27761,1.07669 0.17889,1.0981 c -0.34849,0.073 -0.66213,0.11072 -0.93766,0.11072 -0.45258,0 -0.80107,-0.0706 -1.05104,-0.21436 -0.2472,-0.14139 -0.42191,-0.32998 -0.5232,-0.56321 -0.10129,-0.23087 -0.15287,-0.72093 -0.15287,-1.46546 l 0,-4.2176 -0.91165,0 0,-0.96597 0.91165,0 0,-1.81668 1.23689,-0.74451 0,2.56119 1.24899,0 0,0.96597 -1.24899,0 0,4.28585 c 0,0.35574 0.0213,0.58208 0.0637,0.68336 0.0446,0.10128 0.11522,0.18131 0.21466,0.24267 0.099,0.059 0.23977,0.0895 0.42377,0.0895 0.13893,0 0.32061,-0.0165 0.54689,-0.0496 z m 6.23189,-1.24874 1.28429,0.1579 c -0.20259,0.75161 -0.57755,1.3337 -1.12398,1.74824 -0.54876,0.41239 -1.24853,0.61966 -2.0993,0.61966 -1.07194,0 -1.92272,-0.32979 -2.54954,-0.98956 -0.62866,-0.65976 -0.9423,-1.58561 -0.9423,-2.77792 0,-1.2346 0.31828,-2.19131 0.95206,-2.87211 0.6361,-0.68082 1.45808,-1.02261 2.47148,-1.02261 0.97996,0 1.78147,0.3345 2.40085,1.00137 0.62217,0.66682 0.93302,1.60704 0.93302,2.81567 0,0.0753 -0.002,0.18622 -0.007,0.33216 l -5.46615,0 c 0.0446,0.80586 0.27321,1.42316 0.68304,1.8497 0.40981,0.42871 0.91907,0.64306 1.53149,0.64306 0.45489,0 0.8438,-0.12014 1.16627,-0.36047 0.32293,-0.23776 0.57709,-0.61946 0.76574,-1.14509 z m -4.07823,-2.00981 4.09263,0 c -0.0544,-0.61492 -0.21234,-1.07902 -0.46883,-1.38521 -0.39635,-0.47845 -0.90979,-0.71877 -1.53892,-0.71877 -0.57012,0 -1.05058,0.19073 -1.43949,0.57244 -0.38844,0.38171 -0.60312,0.89302 -0.64539,1.53154 z m 11.70779,1.68473 1.22017,0.16026 c -0.13196,0.8411 -0.47347,1.50087 -1.02502,1.97676 -0.54875,0.47591 -1.22481,0.71386 -2.02587,0.71386 -1.00179,0 -1.80982,-0.32743 -2.41758,-0.9823 -0.61009,-0.65522 -0.91629,-1.59523 -0.91629,-2.82039 0,-0.7917 0.13196,-1.48436 0.3931,-2.07823 0.26391,-0.59368 0.66213,-1.03909 1.19926,-1.33586 0.53481,-0.29696 1.11934,-0.44542 1.74848,-0.44542 0.79641,0 1.44924,0.20254 1.95338,0.60549 0.50648,0.40295 0.83173,0.97307 0.97531,1.71539 l -1.20903,0.18605 c -0.11522,-0.4924 -0.31781,-0.8623 -0.61008,-1.11205 -0.2918,-0.24741 -0.6454,-0.37227 -1.06033,-0.37227 -0.62635,0 -1.1356,0.22377 -1.52684,0.67392 -0.39077,0.44761 -0.58639,1.15671 -0.58639,2.12759 0,0.98484 0.18819,1.70106 0.5678,2.14883 0.37684,0.44523 0.86936,0.66901 1.47712,0.66901 0.48789,0 0.89306,-0.15082 1.22064,-0.44994 0.32758,-0.29912 0.53481,-0.7587 0.62217,-1.3807 z m 2.28561,2.68608 0,-10.11994 1.24154,0 0,3.63098 c 0.57943,-0.67138 1.31218,-1.00844 2.19595,-1.00844 0.54178,0 1.01293,0.10836 1.41393,0.32288 0.40006,0.21184 0.68768,0.5088 0.8596,0.88596 0.17192,0.37697 0.25928,0.92586 0.25928,1.64207 l 0,4.64649 -1.24387,0 0,-4.64649 c 0,-0.61965 -0.13475,-1.07199 -0.40285,-1.35478 -0.26904,-0.28279 -0.65052,-0.4265 -1.14304,-0.4265 -0.36755,0 -0.71371,0.0967 -1.03896,0.28766 -0.32526,0.19079 -0.55619,0.44979 -0.6928,0.77741 -0.13892,0.32525 -0.20724,0.77755 -0.20724,1.35237 l 0,4.01033 z m 7.86235,0 0,-7.33004 1.11703,0 0,1.04148 c 0.53945,-0.80589 1.31681,-1.20884 2.33208,-1.20884 0.44327,0 0.84845,0.0801 1.21831,0.23814 0.37218,0.16007 0.64818,0.36735 0.83219,0.62653 0.18586,0.25686 0.31318,0.56325 0.38844,0.91661 0.0446,0.23089 0.0683,0.63384 0.0683,1.20884 l 0,4.50728 -1.24387,0 0,-4.4603 c 0,-0.5042 -0.0474,-0.88354 -0.14405,-1.13566 -0.0962,-0.24975 -0.26857,-0.45015 -0.51343,-0.59842 -0.2472,-0.15082 -0.53482,-0.22615 -0.86704,-0.22615 -0.53017,0 -0.98506,0.16951 -1.37165,0.50406 -0.3838,0.33701 -0.57477,0.97321 -0.57477,1.91339 l 0,4.00308 z m 7.86746,-8.6895 0,-1.43044 1.24387,0 0,1.43044 z m 0,8.6895 0,-7.33004 1.24387,0 0,7.33004 z m 3.14058,0 0,-10.11994 1.24386,0 0,5.77036 2.94078,-2.98046 1.60675,0 -2.80137,2.71909 3.08668,4.61095 -1.53382,0 -2.42221,-3.74861 -0.87681,0.84346 0,2.90515 -1.24386,0" inkscape:connector-curvature="0" sodipodi:nodetypes="cccccccccccccccccccscscscscccsccccccssccccscsccsccccscscsccccccsccsccscsccsccccscscccccscscccccscccsscccccccccscsccscccccscccsccsccscscccccccccccccccccccccccccccscccsccsccsccsccccccccscccsccsccscsccccsccsccsccccccscscscscscccccccccccccccccccscsscscsscccsccccccscccccscscscscccsccccccscccccccsccsccscccccscscscscccsccccccscccccscsccccscccscccccscscccccsccsscccsccsccccccccccsccsccccscscscscccsccccccscccccscsccsccccscscsccccccsccsccscsccsccccccscccsccsccscsccccccccccccccccccccccccc"/>
    <path id="path3038" style="fill:#183b65;fill-opacity:1;fill-rule:nonzero;stroke:none" d="m 331.02214,555.09228 -17.40662,0 0.40021,-50.41898 17.40642,0 0,6.00235 c 5.20209,-5.20176 10.70401,-7.80287 16.50616,-7.80287 6.13575,0 10.90422,2.60111 14.30537,7.80287 6.13571,-5.20176 12.40477,-7.80287 18.80718,-7.80287 5.60183,0 9.80366,1.83397 12.60458,5.50193 2.53467,3.26787 3.80177,7.73642 3.80177,13.40515 0,7.40267 -0.0669,18.50675 -0.20026,33.31242 l -17.40674,0 c 0.13335,-12.93819 0.20026,-22.67513 0.20026,-29.2109 0,-5.33516 -2.10068,-8.00272 -6.30205,-8.00272 -3.20145,0 -6.26952,1.53381 -9.20379,4.60143 l -0.40006,32.61219 -17.40655,0 c 0.13339,-12.93819 0.20003,-22.67513 0.20003,-29.2109 0,-5.33516 -2.10092,-8.00272 -6.30238,-8.00272 -3.20116,0 -6.26897,1.53381 -9.20352,4.60143 l -0.40001,32.61219" inkscape:connector-curvature="0"/>
    <path id="path3040" style="fill:#2dc6d6;fill-opacity:1;fill-rule:nonzero;stroke:none" d="m 412.8253,537.27998 0.40006,-32.61218 17.40674,0 -0.36661,49.41858 -17.44019,0 0,-4.50167 c -5.00195,4.86847 -10.43744,7.30263 -16.30597,7.30263 -11.00432,0 -16.50624,-6.56899 -16.50624,-19.70735 0,-6.86921 0.0664,-17.70657 0.1998,-32.51219 l 17.40673,0 c -0.13336,12.93819 -0.1998,22.90865 -0.1998,29.91126 0,4.86847 2.10068,7.30282 6.30205,7.30282 2.86783,0 5.90245,-1.53391 9.10343,-4.6019" inkscape:connector-curvature="0"/>
    <path id="path3042" style="fill:#183b65;fill-opacity:1;fill-rule:nonzero;stroke:none" d="m 430.15593,555.09684 -17.40627,0 0.40006,-50.41898 17.40672,0 0,6.00235 c 5.20177,-5.20176 10.7037,-7.80286 16.50625,-7.80286 6.13525,0 10.90395,2.6011 14.30519,7.80286 6.13571,-5.20176 12.40431,-7.80286 18.80719,-7.80286 5.60183,0 9.80366,1.83396 12.60457,5.50192 2.53421,3.26788 3.80131,7.73643 3.80131,13.40516 0,7.40267 -0.0664,18.50675 -0.1998,33.31241 l -17.40674,0 c 0.13336,-12.93819 0.20026,-22.67512 0.20026,-29.2109 0,-5.33516 -2.10115,-8.00272 -6.30251,-8.00272 -3.20097,0 -6.26906,1.53381 -9.20333,4.60143 l -0.40006,32.61219 -17.40673,0 c 0.13335,-12.93819 0.1998,-22.67512 0.1998,-29.2109 0,-5.33516 -2.10069,-8.00272 -6.30206,-8.00272 -3.20144,0 -6.26906,1.53381 -9.20334,4.60143 l -0.40051,32.61219" inkscape:connector-curvature="0"/>
  </g>
</svg>